<svg height="24" width="24" viewBox="0 0 24 24" xmlns="http://www.w3.org/2000/svg"><path fill="currentColor" fill-rule="evenodd" d="M7.546 12.988A25 25 0 0 1 6.502 10.2c-.264-.858-.124-1.48.217-1.886.344-.42.827-.622 1.356-.653.093 0 .187 0 .28.015a3.3 3.3 0 0 1-.109-.81c0-1.013.796-1.76 1.87-1.76.14 0 .28.015.405.046l-.007-.078a4 4 0 0 1-.024-.373c0-1.107.904-1.761 1.9-1.761.703 0 1.232.311 1.542 1.012a2.08 2.08 0 0 1 1.605-.265c.718.187 1.154.685 1.418 2.213.094.484.234 1.075.405 1.59.218.655.467 1.168.903 1.931.14.234.312.499.483.748l.14-.28c.42-.858 1.247-1.7 2.446-1.7.515 0 1.076.188 1.387.717.203.296.28.638.28.934 0 .405-.17.81-.31 1.121a.4.4 0 0 0-.048.11l-.062.13c-.35.724-.778 1.615-.778 2.642 0 3.162-1.17 4.783-2.073 5.624-.92.858-2.352 1.59-4.02 1.59a6.3 6.3 0 0 1-3.426-1.013c-1.344-.89-2.177-2.252-2.922-3.47l-.07-.112c-.623-1.043-1.075-1.884-1.744-3.474m-.11-4.08c-.17.217-.186.56-.046 1.012.296.95.64 1.821 1.01 2.714.654 1.542 1.075 2.337 1.682 3.35l.046.075c.748 1.22 1.49 2.433 2.665 3.211.856.56 1.9.856 2.913.856a5 5 0 0 0 3.38-1.34c.78-.716 1.776-2.119 1.776-4.939 0-1.226.505-2.3.85-3.032l.053-.114.014-.028c.098-.196.282-.562.282-.828a.85.85 0 0 0-.109-.42c-.14-.219-.358-.297-.623-.297-.826 0-1.356.623-1.652 1.168a4 4 0 0 0-.295.747c-.172.577-.343.81-.841 1.215-.265.233-.592.53-.779.763-.311.422-.404.78-.482 1.34-.016.14-.28.203-.608.203-.186 0-.249-.063-.249-.358 0-.312.11-.779.343-1.2.327-.575.685-.887 1.043-1.183s.467-.42.53-.607a13 13 0 0 1-.888-1.325c-.452-.794-.748-1.387-.981-2.103a13.5 13.5 0 0 1-.436-1.73c-.187-1.091-.374-1.371-.732-1.465-.296-.078-.685 0-.903.187-.171.156-.233.28-.187.623.078.749.203 1.325.343 1.87.276 1.078.708 1.957 1.004 2.561q.083.167.148.305c.093.202.171.28.327.265l.11-.009c.154-.012.258-.02.373-.007.186.016.327.125.327.311 0 .156-.078.218-.358.28-.577.125-1.31.328-2.026.732a5.4 5.4 0 0 0-1.62 1.372c-.047.062-.094.094-.172.094-.109 0-.202-.125-.296-.25-.093-.124-.155-.218-.155-.311 0-.109.046-.202.155-.343.063-.085.13-.162.188-.23.104-.12.186-.214.186-.283 0-.053-.064-.155-.143-.282q-.06-.094-.122-.201a23 23 0 0 1-.778-1.683c-.358-.856-.607-1.948-.748-2.617-.17-.732-.436-.934-.84-.934-.56 0-.935.327-.935.825 0 .328.11.764.327 1.48.14.467.28.935.405 1.262.203.562.452 1.184.67 1.683.161.36.383.77.537 1.056l.101.19.025.044c.08.141.193.343.193.469 0 .249-.187.39-.436.39-.14 0-.265-.063-.405-.281-.171-.25-.545-.982-.81-1.527-.202-.452-.544-1.263-.716-1.823-.28-.888-.467-1.23-.95-1.215-.28.016-.513.11-.684.311M11.395 4.7c0-.592.545-.825.997-.825.482 0 .654.233.778.731.11.405.156.779.203 1.215.062.436.28 1.434.342 1.683.234.856.7 1.87 1.261 3.084a8 8 0 0 0-1.059.452c-.373.202-.451.202-.607-.094-.327-.607-.56-1.059-.763-1.59a11.5 11.5 0 0 1-.482-1.511c-.065-.27-.113-.487-.155-.669-.108-.48-.161-.717-.297-1.045-.109-.466-.218-1.042-.218-1.431m-8.05 11.694c.395-.146 2.144-1.061 2.473-1.265.299-.186.395-.326.255-.675-.127-.319-.311-.408-.576-.337-.376.102-1.997.688-2.388.84-.441.17-.751.326-.53.984.18.532.485.558.767.453m1.032-4.975c-.47.013-2.421-.07-2.867-.115-.388-.038-.545-.21-.503-.771.046-.603.28-.64.661-.603.442.042 2.487.375 2.813.476.337.104.383.257.342.552-.052.382-.225.454-.446.46M2.147 6.13c.51.306 1.963 1.178 2.471 1.338.27.085.41.009.562-.29s.191-.42-.097-.651c-.299-.24-1.863-1.458-2.306-1.689-.382-.198-.64-.122-.872.317-.262.497-.214.7.163.927z"></path></svg>