<svg
  xmlns="http://www.w3.org/2000/svg"
  viewBox="0 0 158 130"
 
  fill="none"
>
  <path
    fill="#1F1F1A"
    d="M40.16 52.29c2.09 6.93 4.62 13.43 7.37 19.7 4.73 11.23 7.92 17.17 12.33 24.54 5.39 8.8 11.34 18.82 21.13 25.31 7.15 4.73 15.85 7.15 24.21 7.15 11.78 0 21.9-5.17 28.4-11.23 6.38-5.94 14.64-17.39 14.64-39.73 0-7.7 3.41-14.31 5.94-19.59 0-.11.11-.33.33-.77.99-2.2 2.2-5.06 2.2-7.92 0-2.09-.55-4.51-1.98-6.6-2.2-3.74-6.16-5.06-9.8-5.06-8.47 0-14.31 5.94-17.28 12l-.99 1.98c-1.21-1.76-2.42-3.63-3.41-5.28-3.08-5.39-4.84-9.02-6.38-13.65-1.21-3.63-2.2-7.81-2.86-11.23-1.87-10.79-4.95-14.31-10.02-15.63-3.74-.99-8.14-.22-11.34 1.87-2.42-1.98-6.16-4.18-11.12-4.18-7.04 0-13.43 4.62-13.43 12.44 0 .99.11 1.98.22 3.19-.88-.22-1.87-.33-2.86-.33-7.59 0-13.21 5.28-13.21 12.44 0 1.65.22 3.52.77 5.72-.66-.11-1.32-.11-1.98-.11-3.74.22-7.15 1.65-9.58 4.62-2.2 2.42-3.19 6.82-1.32 12.88Z"
  />
  <path
    fill="#FFE450"
    d="M46.43 50.31c-.99-3.19-.88-5.61.33-7.15 1.21-1.43 2.86-2.09 4.84-2.2 3.41-.11 4.73 2.31 6.71 8.58 1.21 3.96 3.63 9.69 5.06 12.88 1.87 3.85 4.51 9.02 5.72 10.79.99 1.54 1.87 1.98 2.86 1.98 1.76 0 3.08-.99 3.08-2.75 0-.99-.99-2.64-1.54-3.63-.99-1.87-3.08-5.61-4.51-8.8-1.54-3.52-3.3-7.92-4.73-11.89-.88-2.31-1.87-5.61-2.86-8.91-1.54-5.06-2.31-8.14-2.31-10.46 0-3.52 2.64-5.83 6.6-5.83 2.86 0 4.73 1.43 5.94 6.6.99 4.73 2.75 12.44 5.28 18.49 1.65 3.96 4.07 9.25 5.5 11.89.88 1.54 1.87 2.86 1.87 3.41 0 .77-1.43 1.98-2.64 3.63-.77.99-1.1 1.65-1.1 2.42 0 .66.44 1.32 1.1 2.2.66.88 1.32 1.76 2.09 1.76.55 0 .88-.22 1.21-.66 3.41-4.29 7.15-7.26 11.45-9.69 5.06-2.86 10.24-4.29 14.31-5.17 1.98-.44 2.53-.88 2.53-1.98 0-1.32-.99-2.09-2.31-2.2-.99-.11-1.87 0-3.41.11-1.1.11-1.65-.44-2.31-1.87-1.98-4.18-5.83-11.23-8.14-20.25-.99-3.85-1.87-7.92-2.42-13.21-.33-2.42.11-3.3 1.32-4.4 1.54-1.32 4.29-1.87 6.38-1.32 2.53.66 3.85 2.64 5.17 10.35.66 3.63 1.76 8.25 3.08 12.22 1.65 5.06 3.74 9.25 6.93 14.86 1.76 3.08 3.96 6.27 6.27 9.36-.44 1.32-1.21 2.2-3.74 4.29-2.53 2.09-5.06 4.29-7.37 8.36-1.65 2.97-2.42 6.27-2.42 8.47 0 2.09.44 2.53 1.76 2.53 2.31 0 4.18-.44 4.29-1.43.55-3.96 1.21-6.49 3.41-9.47 1.32-1.65 3.63-3.74 5.5-5.39 3.52-2.86 4.73-4.51 5.94-8.58.55-1.87 1.21-3.63 2.09-5.28 2.09-3.85 5.83-8.25 11.67-8.25 1.87 0 3.41.55 4.4 2.09.55.88.77 2.09.77 2.97 0 1.98-1.43 4.73-2.09 6.05-2.42 5.17-6.38 13.1-6.38 22.23 0 19.92-7.04 29.83-12.55 34.89-5.39 5.06-13.87 9.47-23.88 9.47-7.15 0-14.53-2.09-20.58-6.05-8.47-5.61-13.76-14.42-19.15-23.22-4.29-7.15-7.26-12.77-11.89-23.66-3.41-7.92-5.83-14.08-7.92-20.79Z"
  />
  <path
    fill="#FFE450"
    d="M74.72 13.44c0-4.18 3.85-5.83 7.04-5.83 3.41 0 4.62 1.65 5.5 5.17.77 2.86 1.1 5.5 1.43 8.58.44 3.08 1.98 10.13 2.42 11.89 1.65 6.05 4.95 13.21 8.91 21.79-2.31.77-5.39 2.09-7.48 3.19-2.64 1.43-3.19 1.43-4.29-.66-2.31-4.29-3.96-7.48-5.39-11.23-1.21-3.08-2.42-6.6-3.41-10.68-1.65-6.93-1.87-8.91-3.19-12.11-.77-1.98-1.54-6.05-1.54-8.8Z"
  />
  <path
    fill="#1F1F1A"
    d="M35.32 87.12c-2.33 1.44-14.68 7.91-17.47 8.94-1.99.74-4.15.56-5.42-3.2-1.56-4.65.63-5.75 3.75-6.96 2.76-1.07 14.21-5.21 16.87-5.93 1.87-.5 3.17.13 4.07 2.38 1.99 2.47 1.31 3.46-.8 4.77Z"
  />
  <path
    fill="#1F1F1A"
    d="M25.14 60.91c-3.32.09-17.11-.5-20.26-.81-2.74-.27-3.85-1.48-3.55-5.45.32-4.26 1.98-4.52 4.67-4.26 3.12.3 17.57 2.65 19.87 3.36 2.38.74 2.71 1.82 2.42 3.9-.37 2.7-1.59 3.21-3.15 3.26Z"
  />
  <path
    fill="#1F1F1A"
    d="M26.85 32.99c-3.8-1.2-15.08-8.03-18.02-9.79-2.66-1.6-3-3.04-1.15-6.55 1.64-3.1 3.46-3.64 6.16-2.24 3.13 1.63 14.18 10.23 16.29 11.93 2.04 1.64 1.76 2.49.69 4.6-.86 1.11-1.86 1.65-3.76 1.05Z"
  />
</svg>