<svg
  xmlns="http://www.w3.org/2000/svg"
  viewBox="0 -28.5 256 256"
 
  fill="none"
  preserveAspectRatio="xMidYMid"
>
  <path
    fill="#5865F2"
    fill-rule="nonzero"
    d="M216.856 16.597c-16.571-7.753-34.29-13.388-52.815-16.597a148.78 148.78 0 0 0-6.765 14.046c-19.692-2.961-39.203-2.961-58.533 0a148.442 148.442 0 0 0-6.846-14.046C73.353 3.208 55.613 8.864 39.042 16.638 5.618 67.147-3.443 116.401 1.087 164.956c22.169 16.556 43.654 26.612 64.776 33.193a193.59 193.59 0 0 0 13.872-22.848c-7.631-2.899-14.94-6.478-21.846-10.632a99.45 99.45 0 0 0 5.356-4.237c42.123 19.702 87.89 19.702 129.509 0a100.16 100.16 0 0 0 5.356 4.237c-6.926 4.174-14.255 7.753-21.886 10.653a193.62 193.62 0 0 0 13.873 22.848c21.142-6.58 42.646-16.637 64.816-33.213 5.315-56.287-9.081-105.089-38.056-148.358ZM85.474 135.095c-12.645 0-23.015-11.805-23.015-26.18 0-14.375 10.149-26.2 23.015-26.2 12.867 0 23.237 11.804 23.015 26.2 0 14.375-10.168 26.18-23.015 26.18Zm85.051 0c-12.645 0-23.015-11.805-23.015-26.18 0-14.375 10.148-26.2 23.015-26.2 12.867 0 23.237 11.804 23.015 26.2 0 14.375-10.148 26.18-23.015 26.18Z"
  />
</svg>