<svg height="24" width="24" viewBox="0 0 24 24" xmlns="http://www.w3.org/2000/svg"><path fill="currentColor" d="M19.636 5.066a18.2 18.2 0 0 0-4.539-1.396q-.321.575-.581 1.182a16.9 16.9 0 0 0-5.037 0 13 13 0 0 0-.582-1.182 18.3 18.3 0 0 0-4.542 1.4C1.483 9.32.705 13.464 1.093 17.55a18.3 18.3 0 0 0 5.567 2.794c.45-.606.85-1.25 1.192-1.923a12 12 0 0 1-1.877-.896q.236-.173.46-.346a13.08 13.08 0 0 0 11.13 0q.225.186.46.346-.902.532-1.88.898a13.3 13.3 0 0 0 1.191 1.92 18.2 18.2 0 0 0 5.57-2.792c.457-4.738-.78-8.844-3.27-12.485m-11.29 9.97c-1.086 0-1.982-.984-1.982-2.195s.865-2.204 1.978-2.204 2.002.993 1.983 2.204c-.02 1.211-.874 2.196-1.98 2.196m7.309 0c-1.087 0-1.98-.984-1.98-2.195s.865-2.204 1.98-2.204 1.996.993 1.977 2.204-.872 2.196-1.978 2.196"></path></svg>