<svg viewBox="0 0 24 24" fill="currentColor" width="24" height="24" xmlns="http://www.w3.org/2000/svg"><path d="M8.68201 22.4874C8.6278 22.4788 8.5744 22.4656 8.52234 22.4482C4.15829 20.9862 1 16.864 1 12C1 9.08262 2.15893 6.28473 4.22183 4.22183C5.24327 3.20038 6.4559 2.39013 7.79048 1.83733C9.12506 1.28452 10.5555 1 12 1C13.4445 1 14.8749 1.28452 16.2095 1.83733C17.5441 2.39013 18.7567 3.20038 19.7782 4.22183C20.7996 5.24327 21.6099 6.4559 22.1627 7.79048C22.7155 9.12506 23 10.5555 23 12C23 16.864 19.852 20.9751 15.4898 22.4475C15.4421 22.4636 15.3933 22.476 15.3438 22.4848C14.8611 22.57 14.3343 22.485 13.9409 22.0964C13.5868 21.7465 13.5 21.3037 13.5 21V18.26C13.5 17.5649 13.2575 17.2539 13.1575 17.1678C12.8561 16.9083 12.7372 16.4948 12.8546 16.1148C12.9719 15.7348 13.3034 15.4605 13.6986 15.4162C14.7587 15.2974 15.6583 15.052 16.2916 14.5251C16.8743 14.0402 17.38 13.1892 17.38 11.5C17.38 10.6437 17.0962 9.99368 16.6124 9.46525C16.3531 9.18198 16.2789 8.7752 16.4215 8.41861C16.4554 8.3338 16.6195 7.8848 16.5203 7.23087C16.1956 7.33877 15.7131 7.55741 15.0597 7.9987C14.8168 8.16276 14.5141 8.21198 14.2317 8.13334C13.5362 7.93964 12.767 7.84 12 7.84C11.233 7.84 10.4638 7.93964 9.76827 8.13334C9.48589 8.21198 9.18322 8.16276 8.9403 7.9987C8.28692 7.55741 7.8044 7.33877 7.47973 7.23087C7.38047 7.8848 7.54455 8.3338 7.57848 8.41861C7.72111 8.7752 7.64692 9.18198 7.38759 9.46525C6.90381 9.99368 6.62 10.6437 6.62 11.5C6.62 13.1848 7.12377 14.0404 7.70574 14.5293C8.33615 15.059 9.2312 15.308 10.2819 15.4263C10.6738 15.4704 11.0031 15.7407 11.1228 16.1165C11.2425 16.4923 11.1302 16.9033 10.836 17.1659C10.7597 17.2341 10.5933 17.4441 10.5306 17.8972C10.4942 18.1597 10.3559 18.3933 10.1514 18.5513C10.3723 18.7409 10.5 19.0179 10.5 19.31V21C10.5 21.3062 10.4119 21.7453 10.0603 22.0927C9.67345 22.4748 9.15674 22.5634 8.68201 22.4874ZM9.5 7.17C7.59 5.88 6.75 6.15 6.75 6.15C6.2 7.5 6.55 8.54 6.65 8.79C6 9.5 5.62 10.39 5.62 11.5C5.62 14.6614 7.22422 15.7917 9.0387 16.2277C9.41096 16.3172 9.79208 16.3774 10.17 16.42C9.95227 16.6144 9.74664 16.9237 9.62363 17.3572C9.58844 17.4813 9.56002 17.6154 9.54 17.76C9.04442 17.9687 7.86853 18.3361 6.99813 17.4295C6.86742 17.2933 6.74359 17.1285 6.63 16.93C6.63 16.93 6.29026 16.3146 5.64158 16.0333C5.56659 16.0008 5.48748 15.9728 5.40429 15.9506C5.37128 15.9419 5.33762 15.934 5.30332 15.9272C5.23787 15.9142 5.17009 15.9049 5.1 15.9C5.1 15.9 4.12 15.88 5.03 16.5C5.03 16.5 5.03949 16.5045 5.05698 16.5145C5.06529 16.5193 5.0754 16.5253 5.08716 16.5326C5.14333 16.5676 5.23709 16.633 5.35114 16.7402C5.49461 16.8749 5.6702 17.0756 5.84346 17.3642C5.84351 17.3643 5.84342 17.3642 5.84346 17.3642C5.84579 17.3681 5.84824 17.3722 5.85057 17.3761C5.95015 17.5435 6.04881 17.74 6.14 17.97C6.14774 17.995 6.59922 19.4249 8.5 19.4252C8.79673 19.4252 9.12879 19.3904 9.5 19.31V21C9.5 21.27 9.34 21.58 8.84 21.5C4.87 20.17 2 16.42 2 12C2 9.34784 3.05357 6.8043 4.92893 4.92893C5.85752 4.00035 6.95991 3.26375 8.17317 2.7612C9.38642 2.25866 10.6868 2 12 2C13.3132 2 14.6136 2.25866 15.8268 2.7612C17.0401 3.26375 18.1425 4.00035 19.0711 4.92893C19.9997 5.85752 20.7362 6.95991 21.2388 8.17317C21.7413 9.38642 22 10.6868 22 12C22 16.42 19.14 20.16 15.17 21.5C14.66 21.59 14.5 21.27 14.5 21V18.26C14.5 17.91 14.4533 17.6053 14.3758 17.3449C14.2473 16.9133 14.0345 16.6033 13.81 16.41C14.1915 16.3672 14.5761 16.3072 14.9518 16.218C16.7721 15.7854 18.38 14.6666 18.38 11.5C18.38 10.39 18 9.5 17.35 8.79C17.45 8.54 17.8 7.5 17.25 6.15C17.25 6.15 16.41 5.88 14.5 7.17C13.71 6.95 12.85 6.84 12 6.84C11.15 6.84 10.29 6.95 9.5 7.17Z"></path></svg>