<svg
  xmlns="http://www.w3.org/2000/svg"
 
  viewBox="0 0 24 24"
  fill="#fff"
>
  <path d="M12 0C5.37 0 0 5.373 0 12a12 12 0 008.208 11.385c.6.113.82-.26.82-.577v-2.234c-3.338.728-4.033-1.416-4.033-1.416-.546-1.387-1.334-1.756-1.334-1.756-1.09-.745.082-.73.082-.73 1.205.084 1.839 1.237 1.839 1.237 1.07 1.833 2.809 1.303 3.495.996.107-.775.42-1.303.763-1.603-2.665-.305-5.466-1.335-5.466-5.934 0-1.31.469-2.382 1.236-3.222-.124-.303-.535-1.523.116-3.176 0 0 1.008-.322 3.3 1.23a11.473 11.473 0 013.004-.404c1.02.005 2.048.138 3.004.404 2.29-1.552 3.296-1.23 3.296-1.23.653 1.653.242 2.873.119 3.176.77.84 1.235 1.912 1.235 3.222 0 4.61-2.804 5.625-5.475 5.921.431.371.815 1.102.815 2.222v3.293c0 .32.216.694.825.576A12.001 12.001 0 0024 12c0-6.627-5.373-12-12-12z"/>
</svg>