<svg height="24" width="24" viewBox="0 0 24 24" xmlns="http://www.w3.org/2000/svg"><path fill="currentColor" d="M17.2632 11.1966C17.1685 11.1512 17.0722 11.1074 16.9747 11.0656C16.8049 7.93667 15.0952 6.14536 12.2244 6.12703C12.2114 6.12695 12.1985 6.12695 12.1855 6.12695C10.4684 6.12695 9.04029 6.85989 8.16131 8.19362L9.74015 9.27668C10.3968 8.28043 11.4273 8.06805 12.1862 8.06805C12.195 8.06805 12.2038 8.06805 12.2125 8.06813C13.1577 8.07416 13.871 8.34899 14.3326 8.88494C14.6686 9.27513 14.8933 9.81432 15.0046 10.4948C14.1665 10.3524 13.2601 10.3086 12.2912 10.3641C9.56182 10.5213 7.80714 12.1132 7.92499 14.3251C7.98479 15.4471 8.54375 16.4124 9.49884 17.0429C10.3064 17.576 11.3464 17.8366 12.4273 17.7776C13.8547 17.6994 14.9745 17.1548 15.7558 16.1589C16.3491 15.4027 16.7243 14.4226 16.89 13.1878C17.5703 13.5983 18.0745 14.1386 18.3529 14.788C18.8264 15.8921 18.854 17.7062 17.3737 19.1853C16.0767 20.481 14.5177 21.0415 12.1616 21.0588C9.54802 21.0395 7.57141 20.2013 6.28627 18.5676C5.08285 17.0378 4.46092 14.8281 4.43771 12C4.46092 9.17183 5.08285 6.96218 6.28627 5.43239C7.57141 3.79869 9.54798 2.96052 12.1615 2.9411C14.7941 2.96067 16.8051 3.80287 18.1395 5.44446C18.7937 6.24948 19.287 7.26184 19.6122 8.44222L21.4624 7.94859C21.0682 6.49567 20.448 5.24367 19.6039 4.20535C17.8933 2.10077 15.3915 1.02236 12.168 1H12.1551C8.93813 1.02228 6.46434 2.10479 4.80244 4.21742C3.32359 6.0974 2.56075 8.71326 2.53511 11.9923L2.53503 12L2.53511 12.0077C2.56075 15.2867 3.32359 17.9026 4.80244 19.7826C6.46434 21.8952 8.93813 22.9778 12.1551 23H12.168C15.0281 22.9802 17.044 22.2314 18.7048 20.5721C20.8776 18.4013 20.8122 15.6803 20.0961 14.0099C19.5823 12.8121 18.6027 11.8391 17.2632 11.1966ZM12.3251 15.8393C11.1288 15.9067 9.88606 15.3698 9.82478 14.2197C9.77936 13.367 10.4316 12.4155 12.3985 12.3021C12.6238 12.2891 12.8448 12.2828 13.0619 12.2828C13.7763 12.2828 14.4447 12.3522 15.0523 12.485C14.8257 15.3155 13.4963 15.7751 12.3251 15.8393Z"></path></svg>