<svg
  xmlns="http://www.w3.org/2000/svg"
 
  viewBox="0 0 18 20"
>
  <g transform="translate(0.133 0)">
    <path fill="transparent" d="M0 20.133V0.133h17.733v20H0z"/>
    <path fill="#25F4EE" d="M6.905 7.877v-0.781A7.574 7.574 0 006.085 7.037C2.73 7.037 0 9.758 0 13.102c0 2.052 1.028 3.867 2.598 4.965C1.585 16.983 0.964 15.532 0.964 13.938c0-3.296 2.652-5.984 5.941-6.061z"/>
    <path fill="#25F4EE" d="M7.05 16.705c1.497 0 2.718-1.186 2.773-2.665l.006-13.204h2.42a4.26 4.26 0 01-.078-0.836H8.865v13.204c-.056 1.478-1.277 2.665-2.774 2.665-.465 0-.904-.116-1.289-.318.505.698 1.325 1.154 2.253 1.154z"/>
    <path fill="#25F4EE" d="M16.774 5.318v-0.734c-.923 0-1.783-.273-2.505-.742.643.735 1.515 1.265 2.505 1.476z"/>
    <path fill="#FE2C55" d="M14.267 3.839c-.704-.805-1.132-1.856-1.132-3.005h-.885c.233 1.255.981 2.332 2.017 3.005z"/>
    <path fill="#FE2C55" d="M6.088 10.33c-1.533 0-2.779 1.243-2.779 2.77 0 1.063.605 1.988 1.49 2.451a3.85 3.85 0 01-.526-1.615c0-1.527 1.246-2.77 2.779-2.77.286 0 .56.047.82.128v-3.364a6.736 6.736 0 00-.964-.059c-.049 0-.096.003-.144.004v2.583a2.642 2.642 0 00-.676-.128z"/>
    <path fill="#FE2C55" d="M16.769 5.316v2.561c-1.714 0-3.302-.546-4.599-1.474v6.696c0 3.344-2.73 6.064-6.085 6.064a5.934 5.934 0 01-3.487-1.099c1.111 1.189 2.695 1.935 4.451 1.935 3.355 0 6.085-2.721 6.085-6.064V7.239c1.296.928 2.885 1.474 4.599 1.474V5.418c-.331 0-.653-.035-.964-.102z"/>
    <path fill="#161616" d="M12.171 13.098V6.402c1.297.928 2.886 1.474 4.6 1.474v-2.56c-.99-.211-1.863-.741-2.505-1.477-.735-.673-1.483-1.75-1.716-3.006h-2.42l-.006 13.204c-.055 1.478-1.276 2.665-2.774 2.665-.927 0-1.748-.456-2.253-1.154C3.913 15.085 3.307 14.161 3.307 13.098c0-1.527 1.247-2.77 2.779-2.77.286 0 .561.047.82.128V7.873C3.617 7.95.965 10.638.965 13.933c0 1.595.621 3.046 1.634 4.13A5.934 5.934 0 006.086 19.162c3.355 0 6.085-2.721 6.085-6.064z"/>
  </g>
</svg>