<svg height="24" width="24" viewBox="0 0 24 24" xmlns="http://www.w3.org/2000/svg"><path fill="currentColor" fill-rule="evenodd" d="M19.795 4.212A10.88 10.88 0 0 0 12.046 1C6.008 1 1.094 5.914 1.092 11.953a10.93 10.93 0 0 0 1.462 5.476L1 23.106l5.807-1.523a10.94 10.94 0 0 0 5.234 1.333h.005c6.037 0 10.952-4.914 10.954-10.954a10.9 10.9 0 0 0-3.206-7.75m-7.749 16.854h-.003a9.1 9.1 0 0 1-4.635-1.269l-.332-.197-3.446.903.92-3.36-.217-.344a9.1 9.1 0 0 1-1.392-4.845c.002-5.02 4.087-9.104 9.109-9.104a9.04 9.04 0 0 1 6.437 2.67 9.05 9.05 0 0 1 2.664 6.441c-.003 5.02-4.087 9.105-9.105 9.105m4.994-6.818c-.273-.138-1.62-.8-1.87-.89-.251-.092-.434-.138-.616.136s-.707.891-.866 1.073c-.16.183-.32.206-.593.069-.274-.137-1.156-.426-2.202-1.359-.813-.725-1.363-1.621-1.522-1.896s-.017-.422.12-.558c.122-.123.273-.32.41-.48s.182-.274.274-.456c.091-.183.045-.342-.023-.48s-.615-1.484-.844-2.032c-.222-.533-.448-.46-.615-.47-.16-.008-.342-.01-.525-.01s-.48.07-.73.343c-.251.274-.958.937-.958 2.283 0 1.347.98 2.65 1.117 2.832.138.183 1.93 2.947 4.676 4.133.653.282 1.163.45 1.56.577.656.208 1.253.179 1.724.109.526-.08 1.62-.663 1.848-1.302.228-.64.228-1.188.16-1.302-.069-.114-.252-.182-.525-.32"></path><defs><clipPath id="-clip"><path fill="#ffffff" d="M0 0h24v24H0z"></path></clipPath></defs></svg>